<?xml version="1.0" encoding="UTF-8"?>
<svg id="Layer_1" data-name="Layer 1" xmlns="http://www.w3.org/2000/svg" viewBox="0 0 800 800">
  <defs>
    <style>
      .cls-1 {
        fill: #fff;
        stroke-width: 0px;
      }
    </style>
  </defs>
  <g>
    <polygon class="cls-1" points="236.27 266.24 236.27 374.52 389.85 463.18 389.84 544.11 236.27 455.45 166.03 414.91 166.03 156.48 389.85 285.7 389.85 354.9 236.27 266.24"/>
    <polygon class="cls-1" points="633.97 156.48 633.97 225.69 568.77 263.33 568.77 452.54 498.53 493.1 498.53 303.88 410.17 354.9 410.18 285.69 633.97 156.48"/>
    <polygon class="cls-1" points="627.1 136.97 560.34 175.52 504.43 112.34 554.87 55.33 627.1 136.97"/>
    <polygon class="cls-1" points="295.58 112.36 239.69 175.53 172.91 136.97 245.13 55.33 295.58 112.36"/>
    <polygon class="cls-1" points="542.37 185.89 400.01 268.1 257.66 185.91 262.59 180.34 309.16 127.7 400.02 25 490.86 127.68 537.51 180.4 542.37 185.89"/>
  </g>
  <g>
    <path class="cls-1" d="m172.3,775h-55.71c-16.22,0-24.33-8.11-24.33-24.33v-121.64c0-16.22,8.11-24.33,24.33-24.33h55.71c16.22,0,24.33,8.11,24.33,24.33v42.33h-33.82v-22.87c0-3.24-1.62-4.87-4.87-4.87h-21.89c-3.25,0-4.87,1.62-4.87,4.87v82.71c0,3.25,1.62,4.87,4.87,4.87h21.89c3.24,0,4.87-1.62,4.87-4.87v-25.79h33.82v45.25c0,16.22-8.11,24.33-24.33,24.33Z"/>
    <path class="cls-1" d="m288.09,775h-39.41v-131.37h-37.71l2.92-38.92h112.15l-3.16,38.92h-34.79v131.37Z"/>
    <path class="cls-1" d="m427.98,775h-64.95c-16.22,0-24.33-8.11-24.33-24.33v-121.64c0-16.22,8.11-24.33,24.33-24.33h62.52c16.22,0,24.33,8.11,24.33,24.33v28.95h-33.81v-9.49c0-3.24-1.62-4.87-4.87-4.87h-28.71c-3.25,0-4.87,1.62-4.87,4.87v82.71c0,3.25,1.62,4.87,4.87,4.87h28.71c2.92,0,4.38-1.46,4.38-4.38v-21.41h-25.79l3.65-34.3h56.44v77.12c0,14.6-7.3,21.89-21.89,21.89Z"/>
    <path class="cls-1" d="m572.24,775h-99.01v-170.29h98.28l-2.92,38.92h-56.68v24.81h53.76l-3.41,33.57h-50.36v34.06h60.33v38.92Z"/>
    <path class="cls-1" d="m707.74,775h-38.19v-38.92l-39.17-62.03v100.96h-38.19v-170.29h38.19l39.17,62.03v-62.03h38.19v170.29Z"/>
  </g>
</svg>