<?xml version="1.0" encoding="UTF-8"?>
<svg id="Layer_1" data-name="Layer 1" xmlns="http://www.w3.org/2000/svg" xmlns:xlink="http://www.w3.org/1999/xlink" viewBox="0 0 900 300">
  <defs>
    <style>
      .cls-1 {
        fill: #00002d;
      }

      .cls-1, .cls-2, .cls-3, .cls-4, .cls-5, .cls-6 {
        stroke-width: 0px;
      }

      .cls-2 {
        fill: url(#radial-gradient-2);
      }

      .cls-3 {
        fill: url(#radial-gradient-5);
      }

      .cls-4 {
        fill: url(#radial-gradient);
      }

      .cls-5 {
        fill: url(#radial-gradient-3);
      }

      .cls-6 {
        fill: url(#radial-gradient-4);
      }
    </style>
    <radialGradient id="radial-gradient" cx="1.96" cy="3.61" fx="1.96" fy="3.61" r="467.62" gradientUnits="userSpaceOnUse">
      <stop offset=".15" stop-color="#a5fecb"/>
      <stop offset=".5" stop-color="#20bdff"/>
      <stop offset=".81" stop-color="#5433ff"/>
    </radialGradient>
    <radialGradient id="radial-gradient-2" cx="1.96" cy="3.61" fx="1.96" fy="3.61" r="467.62" xlink:href="#radial-gradient"/>
    <radialGradient id="radial-gradient-3" cy="3.61" fy="3.61" r="467.62" xlink:href="#radial-gradient"/>
    <radialGradient id="radial-gradient-4" cx="1.96" cy="3.61" fx="1.96" fy="3.61" r="467.62" xlink:href="#radial-gradient"/>
    <radialGradient id="radial-gradient-5" cx="1.96" cy="3.61" fx="1.96" fy="3.61" r="467.62" xlink:href="#radial-gradient"/>
  </defs>
  <g>
    <polygon class="cls-4" points="85.66 140.7 85.66 195.67 163.62 240.68 163.62 281.77 85.66 236.76 50 216.17 50 84.98 163.62 150.58 163.62 185.71 85.66 140.7"/>
    <polygon class="cls-2" points="287.55 84.98 287.55 120.12 254.45 139.23 254.45 235.28 218.8 255.87 218.8 159.81 173.94 185.71 173.94 150.58 287.55 84.98"/>
    <polygon class="cls-5" points="284.06 75.08 250.17 94.65 221.79 62.57 247.39 33.63 284.06 75.08"/>
    <polygon class="cls-6" points="115.77 62.58 87.39 94.65 53.49 75.08 90.16 33.63 115.77 62.58"/>
    <polygon class="cls-3" points="241.05 99.91 168.78 141.64 96.52 99.92 99.02 97.09 122.66 70.37 168.78 18.23 214.9 70.36 238.58 97.12 241.05 99.91"/>
  </g>
  <g>
    <path class="cls-1" d="m409.42,220.06h-45.84c-13.35,0-20.02-6.67-20.02-20.02v-100.09c0-13.34,6.67-20.02,20.02-20.02h45.84c13.34,0,20.02,6.67,20.02,20.02v34.83h-27.82v-18.82c0-2.67-1.34-4-4-4h-18.02c-2.67,0-4,1.34-4,4v68.06c0,2.67,1.33,4,4,4h18.02c2.67,0,4-1.33,4-4v-21.22h27.82v37.23c0,13.35-6.67,20.02-20.02,20.02Z"/>
    <path class="cls-1" d="m504.7,220.06h-32.43v-108.09h-31.03l2.4-32.03h92.28l-2.6,32.03h-28.62v108.09Z"/>
    <path class="cls-1" d="m619.8,220.06h-53.45c-13.35,0-20.02-6.67-20.02-20.02v-100.09c0-13.34,6.67-20.02,20.02-20.02h51.44c13.34,0,20.02,6.67,20.02,20.02v23.82h-27.82v-7.81c0-2.67-1.34-4-4-4h-23.62c-2.67,0-4,1.34-4,4v68.06c0,2.67,1.33,4,4,4h23.62c2.4,0,3.6-1.2,3.6-3.6v-17.62h-21.22l3-28.22h46.44v63.46c0,12.01-6.01,18.02-18.02,18.02Z"/>
    <path class="cls-1" d="m738.5,220.06h-81.47V79.94h80.87l-2.4,32.03h-46.64v20.42h44.24l-2.8,27.62h-41.44v28.02h49.64v32.03Z"/>
    <path class="cls-1" d="m850,220.06h-31.43v-32.03l-32.23-51.04v83.07h-31.43V79.94h31.43l32.23,51.04v-51.04h31.43v140.12Z"/>
  </g>
</svg>