<?xml version="1.0" encoding="UTF-8"?>
<svg id="Layer_1" data-name="Layer 1" xmlns="http://www.w3.org/2000/svg" viewBox="0 0 800 800">
  <defs>
    <style>
      .cls-1 {
        fill: #00002d;
        stroke-width: 0px;
      }
    </style>
  </defs>
  <polygon class="cls-1" points="163.45 373.53 163.45 529.97 385.33 658.06 385.32 775 163.45 646.9 61.97 588.33 61.97 214.95 385.34 401.65 385.33 501.62 163.45 373.53"/>
  <polygon class="cls-1" points="738.03 214.95 738.03 314.95 643.83 369.34 643.83 642.7 542.36 701.29 542.36 427.92 414.69 501.62 414.71 401.64 738.03 214.95"/>
  <polygon class="cls-1" points="728.1 186.77 631.65 242.46 550.88 151.19 623.75 68.83 728.1 186.77"/>
  <polygon class="cls-1" points="249.14 151.22 168.39 242.49 71.91 186.77 176.25 68.83 249.14 151.22"/>
  <polygon class="cls-1" points="605.69 257.45 400.01 376.22 194.35 257.47 201.47 249.43 268.76 173.38 400.02 25 531.28 173.35 598.67 249.51 605.69 257.45"/>
</svg>